<svg width="30" height="31" viewBox="0 0 30 31" fill="none" xmlns="http://www.w3.org/2000/svg">
<path id="Vector" d="M3.67822 0.761627C1.86627 0.761627 0.388428 2.23947 0.388428 4.05142V27.08C0.388428 28.892 1.86627 30.3698 3.67822 30.3698H26.7068C28.5188 30.3698 29.9966 28.892 29.9966 27.08V4.05142C29.9966 2.23947 28.5188 0.761627 26.7068 0.761627H3.67822ZM5.99136 8.47209H10.2578C14.0424 8.47209 14.6785 10.7981 14.6785 12.2759C14.6785 14.4156 13.2071 15.0902 12.8794 15.2573C13.2071 15.4244 14.8841 15.8741 14.8841 18.3415C15.0512 21.3036 13.2006 22.4537 10.5662 22.4537H5.99136V8.47209ZM17.5057 8.47209H23.5712V10.117H17.5057V8.47209ZM8.76713 10.7852V14.2292H10.2578C11.2473 14.2292 11.9027 13.9015 11.9027 12.5843C11.9027 11.4342 11.408 10.7852 10.2578 10.7852H8.76713ZM21.1039 11.9675C23.4042 11.9675 25.0619 13.2719 25.0619 17.0564V18.1873H19.459C19.459 18.682 19.4911 20.5004 21.4637 20.5004C22.7809 20.5004 23.3977 19.8514 23.7254 19.5238L24.9077 21.1686C24.7406 21.3357 23.6033 22.6593 21.4637 22.6593C18.9963 22.6593 16.9916 21.3357 16.9916 17.8789V17.0564C16.9916 13.2719 18.9642 11.9675 21.1039 11.9675ZM20.7955 14.075C20.3007 14.075 19.3048 14.2614 19.3048 16.234H22.0805C22.0805 16.234 22.4403 14.075 20.7955 14.075ZM8.76713 16.3882V20.192H10.5662C11.5557 20.192 12.0569 19.4916 12.0569 18.3415C12.224 17.0243 11.7614 16.3882 10.7718 16.3882H8.76713Z" fill="white"/>
</svg>
