<svg width="30" height="31" viewBox="0 0 30 31" fill="none" xmlns="http://www.w3.org/2000/svg">
<path id="Vector" d="M8.22791 0.761597C3.68635 0.761597 0.00341797 4.44452 0.00341797 8.98609V22.1453C0.00341797 26.6868 3.68635 30.3698 8.22791 30.3698H21.3871C25.9287 30.3698 29.6116 26.6868 29.6116 22.1453V8.98609C29.6116 4.44452 25.9287 0.761597 21.3871 0.761597H8.22791ZM24.6769 4.05139C25.5849 4.05139 26.3218 4.78831 26.3218 5.69629C26.3218 6.60428 25.5849 7.34119 24.6769 7.34119C23.7689 7.34119 23.032 6.60428 23.032 5.69629C23.032 4.78831 23.7689 4.05139 24.6769 4.05139ZM14.8075 7.34119C19.3491 7.34119 23.032 11.0241 23.032 15.5657C23.032 20.1072 19.3491 23.7902 14.8075 23.7902C10.2659 23.7902 6.58301 20.1072 6.58301 15.5657C6.58301 11.0241 10.2659 7.34119 14.8075 7.34119ZM14.8075 10.631C13.4987 10.631 12.2436 11.1509 11.3181 12.0763C10.3927 13.0018 9.87281 14.2569 9.87281 15.5657C9.87281 16.8744 10.3927 18.1296 11.3181 19.055C12.2436 19.9805 13.4987 20.5004 14.8075 20.5004C16.1163 20.5004 17.3714 19.9805 18.2969 19.055C19.2223 18.1296 19.7422 16.8744 19.7422 15.5657C19.7422 14.2569 19.2223 13.0018 18.2969 12.0763C17.3714 11.1509 16.1163 10.631 14.8075 10.631Z" fill="white"/>
</svg>
